<svg width="232" height="232" viewBox="0 0 232 232" fill="none" xmlns="http://www.w3.org/2000/svg">
<g opacity="0.7" clip-path="url(#clip0_1220_3699)">
<path d="M0 0C76.56 0 153.12 0 232 0C232 76.56 232 153.12 232 232C155.44 232 78.88 232 0 232C0 155.44 0 78.88 0 0Z" fill="white"/>
<path d="M76.4036 43.4137C76.8219 43.4121 76.8219 43.4121 77.2486 43.4105C78.02 43.4082 78.7913 43.409 79.5626 43.4111C80.3955 43.4127 81.2284 43.4103 82.0613 43.4084C83.6918 43.4054 85.3223 43.406 86.9528 43.408C88.278 43.4096 89.6031 43.4098 90.9282 43.409C91.2112 43.4089 91.2112 43.4089 91.4999 43.4087C91.8832 43.4085 92.2664 43.4083 92.6497 43.408C96.2426 43.4061 99.8355 43.4083 103.428 43.412C106.511 43.415 109.594 43.4145 112.677 43.4114C116.257 43.4077 119.838 43.4063 123.418 43.4084C123.8 43.4086 124.182 43.4088 124.564 43.409C124.751 43.4091 124.939 43.4092 125.133 43.4093C126.456 43.4099 127.78 43.4089 129.104 43.4073C130.717 43.4054 132.329 43.4059 133.942 43.4096C134.765 43.4114 135.588 43.4121 136.411 43.4098C137.303 43.4074 138.195 43.4103 139.087 43.4137C139.477 43.4114 139.477 43.4114 139.875 43.4091C141.372 43.4202 142.437 43.5319 143.612 44.5452C143.729 44.6722 143.846 44.7993 143.967 44.9302C144.627 45.626 145.32 46.2391 146.068 46.8391C146.165 46.9334 146.261 47.0278 146.36 47.125C146.36 47.2745 146.36 47.424 146.36 47.5781C146.491 47.6357 146.622 47.6933 146.757 47.7527C147.322 48.0621 147.699 48.4073 148.154 48.8623C148.329 49.0351 148.503 49.2079 148.682 49.3859C148.871 49.5757 149.06 49.7654 149.254 49.9609C149.455 50.1606 149.655 50.3603 149.862 50.566C150.411 51.1134 150.959 51.6617 151.506 52.2105C152.079 52.785 152.654 53.3584 153.228 53.9319C154.192 54.8952 155.155 55.8594 156.118 56.8242C157.231 57.9393 158.345 59.0528 159.46 60.1654C160.418 61.1211 161.374 62.0776 162.331 63.0349C162.901 63.6065 163.473 64.1777 164.045 64.7482C164.682 65.3842 165.318 66.0221 165.953 66.6601C166.143 66.8489 166.333 67.0378 166.528 67.2323C166.701 67.4064 166.874 67.5804 167.052 67.7598C167.202 67.9104 167.353 68.061 167.508 68.2162C168.243 69.0633 168.392 69.6973 168.372 70.8071C168.37 71.0582 168.367 71.3094 168.364 71.5682C168.359 71.8389 168.355 72.1096 168.35 72.3885C168.348 72.9637 168.347 73.539 168.346 74.1142C168.343 75.0199 168.336 75.9246 168.32 76.8301C168.305 77.7051 168.306 78.5792 168.308 79.4544C168.3 79.7223 168.292 79.9903 168.283 80.2663C168.301 81.821 168.533 82.6036 169.649 83.7174C170.042 84.0568 170.435 84.3958 170.828 84.7343C172.532 86.6254 173.973 88.7217 175.36 90.8515C175.445 90.982 175.53 91.1125 175.617 91.2469C177.833 94.7099 179.085 98.6292 179.891 102.633C179.951 102.925 180.011 103.217 180.073 103.518C180.53 105.844 180.698 108.095 180.684 110.463C180.684 110.639 180.683 110.815 180.683 110.996C180.67 114.123 180.324 117.068 179.438 120.078C179.391 120.238 179.343 120.399 179.295 120.564C179.014 121.482 178.679 122.366 178.305 123.25C178.205 123.487 178.106 123.724 178.003 123.968C176.709 126.895 175.198 129.665 173.094 132.086C172.876 132.348 172.658 132.61 172.44 132.873C172.205 133.153 171.97 133.434 171.735 133.714C171.627 133.844 171.52 133.973 171.409 134.106C170.94 134.657 170.503 135.164 169.917 135.595C169.217 136.111 168.661 136.526 168.397 137.376C168.337 138.01 168.334 138.622 168.351 139.258C168.35 139.496 168.349 139.734 168.347 139.979C168.346 140.763 168.357 141.546 168.368 142.329C168.369 142.876 168.368 143.422 168.367 143.969C168.366 145.406 168.374 146.844 168.386 148.282C168.404 150.581 168.409 152.88 168.409 155.18C168.41 155.981 168.418 156.782 168.427 157.584C168.428 158.078 168.43 158.572 168.431 159.066C168.435 159.287 168.439 159.508 168.443 159.736C168.437 162.126 167.506 163.728 165.844 165.391C164.223 166.926 162.449 167.339 160.277 167.312C159.927 167.313 159.927 167.313 159.57 167.314C158.794 167.316 158.018 167.311 157.241 167.306C156.683 167.306 156.125 167.306 155.566 167.306C154.366 167.307 153.167 167.304 151.967 167.299C150.232 167.292 148.498 167.289 146.763 167.288C143.948 167.286 141.134 167.28 138.319 167.271C135.586 167.263 132.852 167.257 130.119 167.253C129.95 167.253 129.782 167.252 129.608 167.252C128.762 167.251 127.916 167.25 127.07 167.249C120.057 167.239 113.044 167.223 106.031 167.203C105.964 167.379 105.896 167.555 105.826 167.737C105.559 168.382 105.234 168.855 104.814 169.412C104.019 170.482 103.243 171.564 102.477 172.655C101.373 174.225 100.255 175.786 99.125 177.338C98.4747 178.233 97.8473 179.137 97.238 180.061C96.1957 181.552 94.7057 182.717 92.8909 183.062C88.5253 183.408 85.9706 181.476 82.7721 178.764C81.2431 177.418 80.3082 175.93 80.1352 173.867C80.1284 171.664 80.3477 170.238 81.5893 168.398C81.7728 168.125 81.7728 168.125 81.96 167.847C82.0532 167.709 82.1464 167.572 82.2424 167.43C82.0278 167.426 81.8132 167.423 81.592 167.42C80.7855 167.406 79.979 167.389 79.1725 167.37C78.8254 167.363 78.4783 167.356 78.1311 167.351C75.0137 167.303 72.6246 167.034 70.3054 164.795C68.6259 162.985 68.1599 160.961 68.1664 158.549C68.166 158.362 68.1656 158.175 68.1652 157.983C68.1641 157.353 68.1647 156.724 68.1652 156.095C68.1648 155.64 68.1643 155.186 68.1637 154.731C68.1623 153.48 68.1623 152.228 68.1626 150.977C68.1626 149.628 68.1614 148.279 68.1603 146.93C68.1584 144.286 68.1578 141.643 68.1577 138.999C68.1576 136.85 68.1571 134.702 68.1564 132.553C68.1562 131.935 68.156 131.317 68.1558 130.699C68.1557 130.468 68.1557 130.468 68.1556 130.233C68.1543 125.909 68.1534 121.585 68.1535 117.261C68.1535 117.098 68.1535 116.935 68.1535 116.767C68.1535 115.94 68.1535 115.114 68.1535 114.287C68.1535 114.123 68.1535 113.959 68.1535 113.79C68.1536 113.458 68.1536 113.126 68.1536 112.794C68.1537 107.63 68.152 102.466 68.1489 97.3025C68.1454 91.5017 68.1435 85.7009 68.1437 79.9001C68.1437 79.2815 68.1437 78.6629 68.1437 78.0444C68.1437 77.8159 68.1437 77.8159 68.1437 77.5828C68.1437 75.1318 68.1423 72.6807 68.1403 70.2297C68.1384 67.7662 68.1382 65.3027 68.1397 62.8392C68.1404 61.5046 68.1404 60.17 68.1385 58.8354C68.1367 57.6137 68.137 56.392 68.139 55.1702C68.1393 54.7283 68.1389 54.2863 68.1377 53.8443C68.1361 53.2432 68.1373 52.6422 68.1392 52.0412C68.138 51.8698 68.1369 51.6985 68.1357 51.522C68.152 49.073 68.7863 47.265 70.4948 45.4851C72.3999 43.7067 73.8514 43.3988 76.4036 43.4137Z" fill="#C6C3F5"/>
<path d="M77.4547 45.4527C77.722 45.4517 77.9894 45.4506 78.2648 45.4495C79.003 45.4473 79.741 45.4481 80.4792 45.4502C81.2767 45.4517 82.0742 45.4493 82.8717 45.4475C84.4322 45.4445 85.9927 45.4451 87.5532 45.4471C88.8212 45.4486 90.0892 45.4488 91.3572 45.4481C91.5378 45.448 91.7184 45.4479 91.9044 45.4478C92.2713 45.4476 92.6382 45.4473 93.005 45.4471C96.4427 45.4452 99.8803 45.4474 103.318 45.4511C106.268 45.4541 109.219 45.4536 112.169 45.4504C115.596 45.4468 119.023 45.4454 122.45 45.4474C122.815 45.4477 123.18 45.4479 123.545 45.4481C123.725 45.4482 123.905 45.4483 124.09 45.4484C125.357 45.449 126.624 45.448 127.891 45.4464C129.434 45.4445 130.978 45.445 132.521 45.4486C133.308 45.4504 134.096 45.4511 134.883 45.4489C135.736 45.447 136.589 45.4493 137.442 45.4527C137.817 45.4505 137.817 45.4505 138.199 45.4481C138.427 45.4499 138.655 45.4517 138.89 45.4535C139.087 45.4536 139.284 45.4537 139.487 45.4538C140.139 45.5589 140.451 45.76 140.922 46.2187C141.035 46.9389 141.035 46.9389 141.035 47.8406C141.037 48.0872 141.037 48.0872 141.039 48.3388C141.041 48.6959 141.041 49.053 141.039 49.4102C141.036 49.9772 141.039 50.544 141.043 51.111C141.049 52.1124 141.05 53.1138 141.05 54.1153C141.049 55.7125 141.052 57.3096 141.062 58.9067C141.064 59.4622 141.062 60.0175 141.06 60.5729C141.064 63.3623 141.374 65.8499 143.373 67.9484C145.043 69.4903 146.696 70.2668 148.971 70.2701C149.231 70.2718 149.231 70.2718 149.496 70.2736C149.872 70.276 150.248 70.2779 150.625 70.2795C151.22 70.2822 151.815 70.2866 152.41 70.2915C154.102 70.3055 155.794 70.3177 157.486 70.3253C158.521 70.33 159.556 70.338 160.591 70.3481C160.985 70.3513 161.38 70.3533 161.774 70.354C162.326 70.3551 162.877 70.3604 163.429 70.3665C163.674 70.3655 163.674 70.3655 163.923 70.3645C164.61 70.3759 165.105 70.4304 165.719 70.7485C166.148 71.2271 166.181 71.4349 166.173 72.0705C166.173 72.3493 166.173 72.3493 166.173 72.6339C166.168 72.8335 166.164 73.0332 166.159 73.239C166.158 73.4442 166.156 73.6494 166.155 73.8608C166.15 74.5165 166.139 75.172 166.127 75.8276C166.122 76.272 166.118 76.7164 166.115 77.1609C166.105 78.2506 166.089 79.3401 166.07 80.4297C165.468 80.1386 164.904 79.8227 164.343 79.4588C155.945 74.1034 145.584 71.5784 135.697 73.6611C134.863 73.8552 134.04 74.0734 133.219 74.3125C133.039 74.3646 132.86 74.4167 132.675 74.4703C127.168 76.133 122.447 79.2488 118.266 83.1484C118.081 83.3178 117.897 83.4872 117.707 83.6617C113.069 88.0878 110.206 94.0059 108.552 100.126C108.508 100.287 108.465 100.447 108.42 100.612C107.689 103.513 107.532 106.399 107.546 109.373C107.547 109.553 107.547 109.733 107.548 109.918C107.558 112.529 107.637 115.046 108.297 117.586C108.336 117.736 108.375 117.886 108.415 118.041C109.596 122.467 111.661 126.397 114.414 130.047C114.649 130.362 114.883 130.677 115.118 130.993C115.364 131.324 115.611 131.656 115.858 131.987C115.977 132.146 116.096 132.306 116.218 132.47C116.33 132.619 116.442 132.768 116.558 132.922C116.658 133.056 116.758 133.19 116.861 133.327C117.147 133.704 117.147 133.704 117.586 134.125C117.527 134.997 117.035 135.451 116.453 136.065C115.498 137.092 114.613 138.157 113.744 139.257C112.711 140.444 112.711 140.444 111.771 140.513C111.439 140.505 111.439 140.505 111.101 140.497C109.33 140.61 108.576 141.506 107.391 142.734C106.882 143.213 106.364 143.681 105.847 144.15C105.605 144.373 105.362 144.596 105.121 144.819C105.018 144.914 104.915 145.009 104.808 145.107C103.697 146.166 102.663 147.286 101.63 148.42C99.9235 150.283 98.1922 152.121 96.4456 153.946C95.3921 155.048 94.3499 156.158 93.3275 157.289C85.886 165.499 85.886 165.499 81.4202 165.818C78.3447 165.901 74.7505 165.628 72.1885 163.748C70.821 162.315 70.4268 160.761 70.4306 158.82C70.43 158.633 70.4295 158.445 70.4289 158.252C70.4274 157.617 70.4275 156.983 70.4276 156.349C70.4269 155.891 70.426 155.434 70.4251 154.977C70.4228 153.716 70.422 152.456 70.4214 151.195C70.4205 149.837 70.4183 148.479 70.4163 147.121C70.4121 143.994 70.4098 140.868 70.4079 137.741C70.4069 136.197 70.4057 134.652 70.4045 133.107C70.4005 127.82 70.3971 122.534 70.3954 117.247C70.3953 116.915 70.3952 116.583 70.3951 116.251C70.395 116.086 70.395 115.922 70.3949 115.752C70.3946 114.918 70.3944 114.084 70.3941 113.25C70.394 113.085 70.394 112.919 70.3939 112.749C70.3921 107.381 70.3868 102.014 70.3795 96.6468C70.3717 90.9735 70.3672 85.3002 70.3665 79.6269C70.3664 79.0042 70.3663 78.3815 70.3662 77.7588C70.3661 77.6055 70.3661 77.4521 70.3661 77.2942C70.3655 74.8258 70.362 72.3574 70.3574 69.889C70.3528 67.4082 70.3516 64.9274 70.3537 62.4466C70.3547 61.1023 70.3543 59.7582 70.3499 58.414C70.3459 57.1837 70.3461 55.9535 70.3496 54.7232C70.3502 54.2779 70.3492 53.8325 70.3465 53.3871C70.3431 52.782 70.3453 52.1772 70.3488 51.5721C70.3465 51.3989 70.3442 51.2258 70.3418 51.0474C70.3623 49.4515 70.9663 48.0754 72.1035 46.9409C72.2215 46.8179 72.3395 46.695 72.4611 46.5683C74.0218 45.4595 75.6099 45.4414 77.4547 45.4527Z" fill="#F0EFFD"/>
<path d="M161.54 86.3203C162.554 87.1143 163.523 87.956 164.485 88.8125C164.634 88.9422 164.783 89.0718 164.936 89.2054C170.229 94.1179 172.85 101.544 173.156 108.594C173.35 116.268 171.158 123.272 165.896 128.954C159.974 135.103 152.713 138.072 144.207 138.274C136.114 138.151 128.515 134.779 122.797 129.141C122.602 128.948 122.406 128.755 122.204 128.557C119.788 126.042 118.147 123.09 116.907 119.852C116.821 119.638 116.736 119.424 116.647 119.204C115.386 115.934 115.041 112.708 115.038 109.231C115.037 109.075 115.037 108.918 115.037 108.757C115.041 106.281 115.177 103.91 115.774 101.5C115.812 101.341 115.849 101.182 115.888 101.018C117.571 94.0937 122.035 88.6108 127.965 84.776C131.035 82.914 134.265 81.7035 137.75 80.8828C137.924 80.8406 138.097 80.7984 138.276 80.755C146.045 79.0127 155.178 81.6927 161.54 86.3203Z" fill="#F0EFFD"/>
<path d="M165.844 137.977C166.444 138.577 166.355 139.024 166.363 139.841C166.363 140.039 166.363 140.238 166.363 140.442C166.364 140.65 166.366 140.859 166.367 141.074C166.372 141.767 166.373 142.459 166.373 143.152C166.374 143.634 166.376 144.115 166.378 144.597C166.38 145.609 166.381 146.62 166.381 147.632C166.381 148.925 166.387 150.217 166.395 151.51C166.4 152.506 166.401 153.501 166.401 154.497C166.401 154.974 166.403 155.45 166.407 155.926C166.411 156.595 166.41 157.264 166.407 157.933C166.409 158.128 166.412 158.322 166.415 158.523C166.394 160.551 165.709 162.378 164.285 163.846C162.837 165.087 161.066 165.297 159.228 165.273C159.007 165.274 158.786 165.275 158.558 165.275C157.823 165.277 157.088 165.272 156.353 165.267C155.823 165.267 155.294 165.267 154.765 165.267C153.332 165.268 151.899 165.262 150.467 165.256C149.12 165.251 147.773 165.25 146.426 165.249C143.76 165.247 141.093 165.241 138.427 165.232C135.838 165.224 133.249 165.218 130.66 165.214C130.421 165.213 130.421 165.213 130.176 165.213C129.374 165.212 128.573 165.211 127.771 165.21C121.129 165.2 114.486 165.184 107.844 165.164C108.131 164.423 108.417 163.804 108.89 163.164C109.007 163.003 109.125 162.843 109.246 162.678C109.372 162.508 109.498 162.337 109.628 162.162C109.897 161.795 110.165 161.428 110.433 161.061C110.569 160.876 110.705 160.691 110.845 160.5C111.439 159.682 112.021 158.855 112.602 158.027C113.559 156.665 114.528 155.312 115.504 153.963C116.685 152.332 116.685 152.332 117.855 150.692C117.97 150.529 118.086 150.366 118.205 150.199C118.863 149.19 118.976 148.572 118.974 147.351C119.092 145.499 119.756 144.731 120.984 143.414C121.521 142.769 122.045 142.114 122.57 141.46C122.83 141.141 123.089 140.821 123.349 140.502C123.461 140.365 123.573 140.227 123.688 140.086C123.808 139.939 123.808 139.939 123.93 139.789C124.759 140.092 125.51 140.483 126.278 140.915C134.808 145.671 144.504 146.399 153.836 143.867C158.085 142.601 162.324 140.709 165.844 137.977Z" fill="#F0EFFD"/>
<path d="M76.4036 43.4137C76.8219 43.4121 76.8219 43.4121 77.2486 43.4105C78.02 43.4082 78.7913 43.409 79.5626 43.4111C80.3955 43.4127 81.2284 43.4103 82.0613 43.4084C83.6918 43.4054 85.3223 43.406 86.9528 43.408C88.278 43.4096 89.6031 43.4098 90.9282 43.409C91.2112 43.4089 91.2112 43.4089 91.4999 43.4087C91.8832 43.4085 92.2664 43.4083 92.6497 43.408C96.2426 43.4061 99.8355 43.4083 103.428 43.412C106.511 43.415 109.594 43.4145 112.677 43.4114C116.257 43.4077 119.838 43.4063 123.418 43.4084C123.8 43.4086 124.182 43.4088 124.564 43.409C124.751 43.4091 124.939 43.4092 125.133 43.4093C126.456 43.4099 127.78 43.4089 129.104 43.4073C130.717 43.4054 132.329 43.4059 133.942 43.4096C134.765 43.4114 135.588 43.4121 136.411 43.4098C137.303 43.4074 138.195 43.4103 139.087 43.4137C139.477 43.4114 139.477 43.4114 139.875 43.4091C141.372 43.4202 142.437 43.5319 143.612 44.5452C143.729 44.6722 143.846 44.7993 143.967 44.9302C144.627 45.626 145.32 46.2391 146.068 46.8391C146.165 46.9334 146.261 47.0278 146.36 47.125C146.36 47.2745 146.36 47.424 146.36 47.5781C146.491 47.6357 146.622 47.6933 146.757 47.7527C147.322 48.0621 147.699 48.4073 148.154 48.8623C148.329 49.0351 148.503 49.2079 148.682 49.3859C148.871 49.5757 149.06 49.7654 149.254 49.9609C149.455 50.1606 149.655 50.3603 149.862 50.566C150.411 51.1134 150.959 51.6617 151.506 52.2105C152.079 52.785 152.654 53.3584 153.228 53.9319C154.192 54.8952 155.155 55.8594 156.118 56.8242C157.231 57.9393 158.345 59.0528 159.46 60.1654C160.418 61.1211 161.374 62.0776 162.331 63.0349C162.901 63.6065 163.473 64.1777 164.045 64.7482C164.682 65.3842 165.318 66.0221 165.953 66.6601C166.143 66.8489 166.333 67.0378 166.528 67.2323C166.701 67.4064 166.874 67.5804 167.052 67.7598C167.202 67.9104 167.353 68.061 167.508 68.2162C168.251 69.0719 168.393 69.722 168.388 70.843C168.388 71.1015 168.388 71.36 168.387 71.6263C168.385 71.9041 168.383 72.1819 168.38 72.4681C168.379 72.8962 168.379 72.8962 168.378 73.3328C168.376 74.0897 168.372 74.8465 168.367 75.6034C168.363 76.3764 168.361 77.1494 168.358 77.9224C168.353 79.4379 168.346 80.9533 168.336 82.4687C168.261 82.3192 168.187 82.1697 168.11 82.0156C167.941 81.9549 167.773 81.8941 167.6 81.8315C166.781 81.4779 166.396 81.1366 165.844 80.4297C165.697 79.7172 165.728 79.0272 165.757 78.303C165.76 78.0995 165.764 77.896 165.767 77.6863C165.778 77.0382 165.796 76.3906 165.816 75.7426C165.833 75.0923 165.848 74.4421 165.859 73.7917C165.867 73.3874 165.877 72.9832 165.892 72.5791C165.912 71.9707 165.912 71.9707 165.844 71.1406C165.023 70.5932 164.425 70.6241 163.476 70.6296C163.305 70.6288 163.134 70.628 162.957 70.6271C162.585 70.6256 162.212 70.625 161.84 70.6253C161.249 70.6255 160.659 70.6226 160.068 70.6187C158.388 70.6083 156.709 70.6027 155.029 70.6012C154.002 70.6 152.974 70.5945 151.947 70.5864C151.556 70.5842 151.166 70.5836 150.775 70.5848C146.865 70.5963 146.865 70.5963 145.227 69.5547C145.046 69.4457 144.865 69.3368 144.679 69.2246C142.684 67.6962 141.336 65.9709 140.922 63.4375C140.899 62.8681 140.887 62.3048 140.886 61.7354C140.885 61.5681 140.884 61.4007 140.883 61.2282C140.88 60.8664 140.879 60.5045 140.877 60.1427C140.874 59.5705 140.87 58.9983 140.865 58.4261C140.851 56.7999 140.839 55.1736 140.831 53.5473C140.826 52.5515 140.818 51.5557 140.808 50.5599C140.805 50.1802 140.803 49.8005 140.802 49.4209C140.801 48.8914 140.796 48.3622 140.79 47.8328C140.791 47.6752 140.791 47.5176 140.792 47.3552C140.791 46.8737 140.791 46.8737 140.696 46.2187C139.961 45.7293 139.765 45.7088 138.918 45.7079C138.691 45.7066 138.463 45.7053 138.229 45.7039C137.978 45.7048 137.727 45.7057 137.469 45.7065C137.203 45.7057 136.938 45.7048 136.664 45.7039C135.925 45.702 135.186 45.7021 134.447 45.703C133.651 45.7036 132.854 45.7016 132.058 45.6999C130.497 45.697 128.935 45.6966 127.374 45.6971C126.105 45.6975 124.836 45.6971 123.567 45.6961C123.387 45.696 123.206 45.6959 123.02 45.6957C122.654 45.6955 122.287 45.6952 121.92 45.6949C118.479 45.6924 115.039 45.6929 111.598 45.6943C108.45 45.6955 105.303 45.6929 102.156 45.6886C98.9251 45.6842 95.6941 45.6824 92.4631 45.6832C90.649 45.6837 88.8349 45.6831 87.0208 45.6799C85.4757 45.6772 83.9307 45.6769 82.3857 45.6796C81.5976 45.6809 80.8096 45.6812 80.0215 45.6785C79.1664 45.6761 78.3115 45.6779 77.4564 45.6808C77.0842 45.6783 77.0842 45.6783 76.7044 45.6758C75.0704 45.6873 73.6897 45.8211 72.3958 46.9179C72.2527 47.089 72.1096 47.2602 71.9621 47.4365C71.8155 47.6065 71.6689 47.7764 71.5179 47.9516C70.7108 49.092 70.6221 50.1164 70.6294 51.4846C70.6286 51.6728 70.6279 51.8609 70.627 52.0547C70.6249 52.6879 70.626 53.3211 70.6271 53.9542C70.6263 54.4117 70.6253 54.8691 70.624 55.3266C70.6213 56.5858 70.6213 57.8451 70.6219 59.1043C70.6219 60.4616 70.6194 61.8188 70.6173 63.1761C70.6135 65.8361 70.6123 68.496 70.612 71.156C70.6118 73.3178 70.6109 75.4796 70.6094 77.6414C70.609 78.2635 70.6086 78.8856 70.6082 79.5077C70.6081 79.6623 70.608 79.817 70.6079 79.9763C70.6051 84.327 70.6034 88.6778 70.6036 93.0285C70.6036 93.2746 70.6036 93.2746 70.6036 93.5256C70.6036 94.3572 70.6037 95.1888 70.6037 96.0203C70.6037 96.1855 70.6037 96.3506 70.6037 96.5208C70.6038 96.8547 70.6038 97.1887 70.6038 97.5227C70.6041 102.719 70.6007 107.914 70.5945 113.11C70.5875 118.947 70.5836 124.783 70.584 130.62C70.5841 131.243 70.5841 131.865 70.5841 132.487C70.5841 132.641 70.5841 132.794 70.5841 132.952C70.5841 135.418 70.5812 137.884 70.5773 140.35C70.5735 142.829 70.5731 145.308 70.576 147.787C70.5775 149.129 70.5775 150.472 70.5736 151.815C70.57 153.044 70.5707 154.274 70.5746 155.503C70.5753 155.948 70.5745 156.392 70.572 156.837C70.522 160.31 70.522 160.31 72.1179 163.309C73.3631 164.323 74.5526 164.949 76.1746 164.984C76.3605 164.989 76.5464 164.993 76.7379 164.998C76.9364 165.001 77.1349 165.005 77.3395 165.009C77.5444 165.014 77.7493 165.019 77.9604 165.023C78.6136 165.038 79.2669 165.052 79.9202 165.065C80.3635 165.075 80.8069 165.085 81.2503 165.095C82.3362 165.119 83.4221 165.142 84.508 165.164C84.2912 165.419 84.074 165.674 83.8567 165.929C83.7358 166.071 83.6149 166.213 83.4903 166.359C82.7575 167.198 82.7575 167.198 81.9521 167.265C81.6336 167.27 81.3149 167.272 80.9963 167.271C80.7413 167.273 80.7413 167.273 80.4812 167.274C80.1201 167.275 79.759 167.276 79.3979 167.275C78.8524 167.274 78.3071 167.279 77.7616 167.285C74.7534 167.298 72.541 166.953 70.3054 164.795C68.6259 162.985 68.1599 160.961 68.1664 158.549C68.166 158.362 68.1656 158.175 68.1652 157.983C68.1641 157.353 68.1647 156.724 68.1652 156.095C68.1648 155.64 68.1643 155.186 68.1637 154.731C68.1623 153.48 68.1623 152.228 68.1626 150.977C68.1626 149.628 68.1614 148.279 68.1603 146.93C68.1584 144.286 68.1578 141.643 68.1577 138.999C68.1576 136.85 68.1571 134.702 68.1564 132.553C68.1562 131.935 68.156 131.317 68.1558 130.699C68.1557 130.468 68.1557 130.468 68.1556 130.233C68.1543 125.909 68.1534 121.585 68.1535 117.261C68.1535 117.098 68.1535 116.935 68.1535 116.767C68.1535 115.94 68.1535 115.114 68.1535 114.287C68.1535 114.123 68.1535 113.959 68.1535 113.79C68.1536 113.458 68.1536 113.126 68.1536 112.794C68.1537 107.63 68.152 102.466 68.1489 97.3025C68.1454 91.5017 68.1435 85.7009 68.1437 79.9001C68.1437 79.2815 68.1437 78.6629 68.1437 78.0444C68.1437 77.8159 68.1437 77.8159 68.1437 77.5828C68.1437 75.1318 68.1423 72.6807 68.1403 70.2297C68.1384 67.7662 68.1382 65.3027 68.1397 62.8392C68.1404 61.5046 68.1404 60.17 68.1385 58.8354C68.1367 57.6137 68.137 56.392 68.139 55.1702C68.1393 54.7283 68.1389 54.2863 68.1377 53.8443C68.1361 53.2432 68.1373 52.6422 68.1392 52.0412C68.138 51.8698 68.1369 51.6985 68.1357 51.522C68.152 49.073 68.7863 47.265 70.4948 45.4851C72.3999 43.7067 73.8514 43.3988 76.4036 43.4137Z" fill="#BEBAF1"/>
<path d="M165.844 137.977C166.451 138.583 166.35 139.042 166.353 139.866C166.352 140.068 166.35 140.27 166.348 140.478C166.348 140.69 166.348 140.902 166.349 141.121C166.348 141.824 166.345 142.528 166.341 143.232C166.34 143.719 166.34 144.206 166.339 144.693C166.337 145.976 166.333 147.26 166.328 148.543C166.323 149.852 166.321 151.161 166.319 152.47C166.314 155.04 166.306 157.61 166.297 160.18C166.222 160.18 166.147 160.18 166.07 160.18C165.996 155.918 165.921 151.656 165.844 147.266C164.049 148.275 164.049 148.275 162.219 149.305C161.388 149.706 160.576 150.085 159.727 150.438C159.394 150.58 159.394 150.58 159.055 150.725C152.988 153.207 145.996 153.789 139.562 152.703C139.24 152.662 139.24 152.662 138.91 152.62C135.706 152.183 132.53 151.087 129.594 149.758C129.273 149.62 128.952 149.483 128.631 149.347C128.425 149.258 128.22 149.17 128.008 149.078C127.224 149.939 126.645 150.676 126.654 151.874C126.68 152.148 126.706 152.421 126.733 152.703C126.827 154.931 125.658 156.195 124.317 157.872C123.682 158.684 123.101 159.532 122.514 160.378C121.492 161.835 120.445 163.272 119.398 164.711C133.305 164.786 147.211 164.86 161.539 164.938C161.539 165.012 161.539 165.087 161.539 165.164C143.82 165.164 126.1 165.164 107.844 165.164C108.176 164.335 108.387 163.845 108.89 163.164C109.007 163.003 109.125 162.843 109.246 162.678C109.372 162.508 109.498 162.337 109.628 162.162C109.897 161.795 110.165 161.428 110.433 161.061C110.569 160.876 110.705 160.691 110.845 160.5C111.439 159.682 112.021 158.855 112.602 158.027C113.559 156.665 114.528 155.312 115.504 153.963C116.685 152.332 116.685 152.332 117.855 150.692C117.97 150.529 118.086 150.366 118.205 150.199C118.863 149.19 118.976 148.572 118.974 147.351C119.092 145.499 119.756 144.731 120.984 143.414C121.521 142.769 122.045 142.114 122.57 141.46C122.83 141.141 123.089 140.821 123.349 140.502C123.461 140.365 123.573 140.227 123.688 140.086C123.808 139.939 123.808 139.939 123.93 139.789C124.759 140.092 125.51 140.483 126.278 140.915C134.808 145.671 144.504 146.399 153.836 143.867C158.085 142.601 162.324 140.709 165.844 137.977Z" fill="#DCDAFC"/>
<path d="M111.695 141.602C112.306 141.889 112.844 142.261 113.394 142.649C113.611 142.794 113.611 142.794 113.833 142.942C116.276 144.616 116.276 144.616 116.591 145.702C116.815 147.41 115.619 148.708 114.641 149.984C114.221 150.519 113.795 151.048 113.364 151.574C112.671 152.448 112.014 153.346 111.355 154.247C109.742 156.45 108.091 158.624 106.43 160.791C106.087 161.24 105.744 161.69 105.402 162.14C104.282 163.608 103.129 165.044 101.96 166.473C100.934 167.731 99.9456 169.015 98.9652 170.309C98.0439 171.522 97.096 172.71 96.1348 173.892C95.5764 174.585 95.0422 175.284 94.5385 176.018C94.4395 176.162 94.3405 176.305 94.2386 176.454C94.055 176.724 93.8743 176.996 93.6971 177.27C92.9231 178.413 92.0581 178.834 90.8515 179.438C88.9581 179.73 87.6287 179.158 86.0937 178.078C83.0904 175.655 83.0904 175.655 82.8236 174.112C82.8209 172.324 83.2568 170.838 84.0546 169.242C82.825 170.472 82.3544 171.925 81.789 173.547C81.7142 173.547 81.6395 173.547 81.5624 173.547C81.5248 173.142 81.499 172.735 81.4775 172.329C81.4617 172.103 81.4459 171.877 81.4297 171.644C81.8719 168.926 84.3984 166.965 86.2618 165.126C86.591 164.798 86.92 164.47 87.2487 164.141C87.9356 163.456 88.6239 162.773 89.3135 162.09C90.1934 161.219 91.071 160.346 91.9476 159.471C92.7892 158.632 93.6319 157.794 94.4747 156.956C94.6334 156.798 94.7921 156.64 94.9556 156.477C98.0193 153.431 98.0193 153.431 99.3331 152.341C99.9037 151.83 100.378 151.238 100.873 150.654C101.268 150.217 101.677 149.843 102.126 149.463C103.037 148.677 103.889 147.847 104.734 146.991C104.881 146.843 105.028 146.695 105.18 146.543C105.644 146.076 106.107 145.609 106.569 145.142C107.184 144.521 107.799 143.901 108.415 143.281C108.626 143.068 108.626 143.068 108.842 142.849C109.83 141.855 110.27 141.452 111.695 141.602Z" fill="#CECBF7"/>
<path d="M119.824 189.83C121.316 189.831 122.808 189.831 124.301 189.829C125.773 189.828 127.245 189.828 128.718 189.829C129.583 189.829 130.448 189.829 131.313 189.829C134.743 189.826 138.163 189.848 141.587 190.061C142.399 190.105 143.212 190.123 144.025 190.142C144.273 190.147 144.273 190.147 144.527 190.153C144.834 190.16 145.141 190.167 145.448 190.174C148.684 190.249 151.903 190.399 155.127 190.697C155.656 190.745 156.184 190.792 156.713 190.838C157.586 190.914 158.458 190.995 159.33 191.077C159.594 191.1 159.858 191.123 160.13 191.147C162.047 191.338 163.787 191.771 165.617 192.352C165.617 192.576 165.617 192.8 165.617 193.031C159.12 194.76 152.219 194.879 145.538 195.085C145.247 195.094 144.956 195.103 144.657 195.113C125.996 195.703 107.24 195.971 88.5859 195.07C88.3222 195.058 88.0585 195.045 87.7867 195.032C85.9523 194.944 84.1184 194.847 82.2847 194.745C81.9388 194.726 81.9388 194.726 81.5859 194.707C79.0902 194.568 76.6081 194.367 74.1258 194.071C73.9056 194.046 73.6855 194.021 73.4588 193.994C72.0729 193.819 70.602 193.633 69.3281 193.031C69.2534 192.807 69.1786 192.583 69.1016 192.352C71.5033 191.561 73.8268 191.197 76.3374 190.964C76.6251 190.936 76.6251 190.936 76.9186 190.908C83.3721 190.286 89.8196 190.065 96.3006 189.963C96.5263 189.959 96.5263 189.959 96.7566 189.956C104.446 189.833 112.134 189.825 119.824 189.83Z" fill="#ECEBFD"/>
<path d="M143.188 47.3516C143.439 47.5649 143.69 47.7785 143.941 47.9924C144.081 48.1113 144.22 48.2303 144.364 48.3528C145.152 49.0422 145.869 49.8026 146.599 50.5509C147.085 51.0376 147.591 51.4898 148.112 51.9377C149.008 52.7187 149.858 53.5356 150.698 54.3762C150.849 54.5259 150.999 54.6757 151.154 54.83C151.645 55.3188 152.135 55.8084 152.625 56.2981C152.968 56.6402 153.311 56.9823 153.654 57.3243C154.369 58.0378 155.083 58.7518 155.797 59.4661C156.714 60.3833 157.633 61.2989 158.552 62.2141C159.259 62.9182 159.965 63.6234 160.67 64.3289C161.008 64.6672 161.347 65.0051 161.687 65.3427C162.159 65.8123 162.629 66.2834 163.099 66.7548C163.24 66.8947 163.381 67.0347 163.527 67.1789C164.484 68.1436 164.484 68.1436 164.484 68.6484C162.489 68.6695 160.494 68.6856 158.499 68.6954C157.572 68.7001 156.645 68.7065 155.719 68.7168C154.823 68.7267 153.927 68.7321 153.03 68.7344C152.69 68.7361 152.35 68.7393 152.01 68.7443C149.572 68.7782 147.138 68.6539 145.255 66.9067C145.025 66.7022 145.025 66.7022 144.789 66.4934C143.091 64.4524 143.034 62.6256 143.077 60.0736C143.079 59.7057 143.081 59.3378 143.082 58.9699C143.086 58.0077 143.097 57.0458 143.11 56.0837C143.121 55.0996 143.127 54.1153 143.132 53.1311C143.144 51.2045 143.164 49.2781 143.188 47.3516Z" fill="#E2E0FB"/>
<path d="M142.352 72.854C142.601 72.8552 142.601 72.8552 142.855 72.8565C151.842 72.9206 160.296 75.673 167.235 81.4501C167.641 81.8018 167.641 81.8018 168.109 82.0156C168.109 82.1651 168.109 82.3146 168.109 82.4687C168.241 82.5274 168.374 82.5861 168.51 82.6466C171.452 84.2491 173.57 88.1029 175.359 90.8515C175.487 91.0472 175.487 91.0472 175.617 91.2469C177.832 94.7099 179.084 98.6292 179.89 102.633C179.95 102.925 180.01 103.217 180.072 103.518C180.529 105.844 180.697 108.095 180.683 110.463C180.683 110.639 180.683 110.815 180.682 110.996C180.67 114.123 180.324 117.067 179.437 120.078C179.39 120.238 179.343 120.399 179.294 120.564C179.013 121.481 178.678 122.366 178.304 123.25C178.155 123.605 178.155 123.605 178.002 123.968C176.708 126.896 175.196 129.662 173.093 132.086C172.88 132.345 172.667 132.605 172.455 132.865C170.837 134.828 169.184 136.447 166.976 137.75C166.752 137.899 166.528 138.049 166.296 138.203C166.072 137.904 165.848 137.605 165.617 137.297C165.825 137.122 166.033 136.946 166.247 136.766C173.243 130.843 178.2 122.945 179.164 113.659C179.857 104.702 177.776 95.2556 172.06 88.1469C171.728 87.7616 171.393 87.3792 171.054 87C170.798 86.7073 170.798 86.7073 170.537 86.4088C170.037 85.8435 169.529 85.2871 169.015 84.7343C168.804 84.5043 168.804 84.5043 168.588 84.2697C163.628 79.0812 156.723 76.0481 149.757 74.7656C149.401 74.6955 149.401 74.6955 149.038 74.624C140.024 73.0694 130.403 75.6006 122.966 80.8261C116.296 85.6931 112.049 92.6394 110.013 100.569C109.882 101.047 109.882 101.047 109.648 101.694C108.915 104.081 108.893 106.517 108.905 108.991C108.906 109.166 108.906 109.341 108.907 109.522C108.917 112.185 109.024 114.761 109.656 117.359C109.691 117.512 109.726 117.665 109.763 117.822C110.637 121.501 112.12 125.44 114.417 128.464C114.528 128.687 114.528 128.687 114.64 128.914C114.453 129.428 114.453 129.428 114.187 129.82C111.037 126.842 109.009 121.724 108.07 117.586C107.975 117.202 107.975 117.202 107.878 116.811C107.338 114.365 107.317 111.908 107.305 109.415C107.303 109.244 107.302 109.072 107.3 108.895C107.272 105.481 107.783 102.27 108.707 98.9795C108.796 98.6621 108.796 98.6621 108.887 98.3383C111.447 89.435 117.663 81.7156 125.742 77.1728C128.599 75.6254 131.528 74.418 134.714 73.7479C135.142 73.6572 135.569 73.5601 135.995 73.4606C138.125 72.9894 140.174 72.8341 142.352 72.854Z" fill="#A29EE1"/>
<path d="M162.297 85.6027C163.453 86.5458 164.537 87.5586 165.618 88.5861C165.762 88.7154 165.906 88.8448 166.054 88.9781C170.869 93.4484 173.935 100.601 174.205 107.121C174.21 107.344 174.21 107.344 174.215 107.572C174.224 107.932 174.235 108.293 174.248 108.653C174.517 116.324 172.21 123.408 167.09 129.197C166.752 129.558 166.413 129.917 166.071 130.274C165.899 130.459 165.728 130.645 165.551 130.836C160.493 136.15 152.576 139.2 145.306 139.4C140.232 139.462 135.279 138.381 130.727 136.164C130.506 136.057 130.285 135.95 130.057 135.839C127.371 134.451 124.975 132.585 122.797 130.5C122.544 130.268 122.544 130.268 122.285 130.031C117.204 125.225 114.229 117.982 113.934 111.055C113.704 102.536 115.771 95.1535 121.595 88.7878C124.613 85.6025 128.059 83.0834 132.086 81.3361C132.228 81.2728 132.37 81.2095 132.516 81.1443C142.281 76.8504 153.967 79.3176 162.297 85.6027ZM137.071 81.1095C136.775 81.1777 136.479 81.2449 136.183 81.3104C131.777 82.3896 127.83 84.5145 124.383 87.4532C124.211 87.5949 124.039 87.7365 123.862 87.8825C119.749 91.3705 117.042 96.3164 115.774 101.5C115.736 101.651 115.698 101.802 115.659 101.958C114.601 106.401 114.551 111.824 115.774 116.227C115.84 116.474 115.905 116.721 115.973 116.976C118.179 124.665 122.884 130.554 129.852 134.562C136.445 138.2 144.67 139.195 151.953 137.354C152.507 137.191 153.06 137.021 153.61 136.844C153.756 136.797 153.902 136.75 154.053 136.702C156.446 135.922 158.541 134.838 160.633 133.445C160.855 133.3 161.078 133.155 161.307 133.005C167.849 128.415 171.55 121.915 172.914 114.155C174.055 106.667 172.196 98.8464 167.808 92.6948C163.058 86.2397 156.399 82.5231 148.625 80.8829C148.443 80.8428 148.26 80.8026 148.072 80.7612C146.408 80.4219 144.797 80.3542 143.103 80.359C142.847 80.3554 142.591 80.3517 142.328 80.3479C140.488 80.3469 138.844 80.6385 137.071 81.1095Z" fill="#A29EE1"/>
<path d="M168.336 136.844C168.357 140.028 168.373 143.213 168.383 146.398C168.388 147.877 168.394 149.355 168.404 150.834C168.414 152.262 168.42 153.69 168.422 155.118C168.424 155.662 168.427 156.206 168.432 156.75C168.438 157.514 168.439 158.277 168.439 159.041C168.442 159.264 168.445 159.488 168.449 159.718C168.435 162.117 167.513 163.721 165.844 165.391C164.226 166.923 162.453 167.339 160.285 167.312C160.053 167.313 159.821 167.314 159.582 167.314C158.808 167.316 158.035 167.311 157.262 167.306C156.706 167.306 156.15 167.306 155.593 167.306C154.398 167.307 153.204 167.304 152.009 167.299C150.281 167.292 148.553 167.289 146.826 167.288C144.022 167.286 141.219 167.28 138.415 167.271C135.693 167.263 132.971 167.257 130.248 167.253C130.081 167.253 129.913 167.252 129.739 167.252C128.897 167.251 128.054 167.25 127.211 167.249C120.227 167.239 113.242 167.223 106.258 167.203C107.228 165.43 107.228 165.43 107.844 164.938C108.27 164.854 108.27 164.854 108.76 164.856C108.947 164.856 109.134 164.855 109.326 164.854C109.532 164.857 109.737 164.859 109.949 164.862C110.276 164.862 110.276 164.862 110.61 164.862C111.345 164.863 112.079 164.869 112.814 164.875C113.339 164.876 113.865 164.878 114.39 164.879C115.524 164.882 116.657 164.887 117.791 164.893C119.432 164.903 121.073 164.908 122.714 164.911C125.38 164.917 128.046 164.926 130.712 164.936C130.871 164.937 131.031 164.937 131.195 164.938C132.974 164.945 134.753 164.952 136.532 164.96C137.176 164.963 137.82 164.966 138.464 164.969C138.623 164.969 138.782 164.97 138.946 164.971C141.6 164.982 144.254 164.99 146.908 164.995C148.689 164.999 150.47 165.007 152.252 165.018C153.362 165.024 154.472 165.026 155.582 165.028C156.096 165.029 156.61 165.032 157.123 165.036C157.827 165.042 158.53 165.043 159.233 165.042C159.535 165.047 159.535 165.047 159.844 165.051C161.499 165.039 163.016 164.63 164.349 163.618C164.521 163.409 164.521 163.409 164.697 163.196C164.816 163.059 164.935 162.923 165.057 162.783C165.964 161.249 166.17 159.715 166.151 157.962C166.152 157.645 166.152 157.645 166.152 157.322C166.153 156.63 166.149 155.938 166.145 155.247C166.144 154.764 166.144 154.28 166.143 153.797C166.142 152.788 166.139 151.78 166.134 150.771C166.128 149.476 166.125 148.182 166.124 146.887C166.123 145.892 166.121 144.896 166.118 143.9C166.117 143.422 166.116 142.945 166.115 142.467C166.113 141.802 166.11 141.136 166.107 140.471C166.107 140.273 166.106 140.076 166.106 139.872C166.101 139.109 166.087 138.479 165.844 137.75C166.143 137.75 166.442 137.75 166.75 137.75C167.109 137.429 167.109 137.429 167.43 137.07C168.109 136.844 168.109 136.844 168.336 136.844Z" fill="#C0BCF2"/>
<path d="M117.359 106.711C122.978 106.684 128.596 106.664 134.215 106.652C136.824 106.646 139.433 106.638 142.042 106.625C144.315 106.614 146.589 106.607 148.863 106.604C150.067 106.603 151.271 106.599 152.475 106.591C153.608 106.583 154.741 106.581 155.874 106.583C156.29 106.582 156.706 106.58 157.122 106.576C157.69 106.57 158.258 106.572 158.826 106.575C158.991 106.571 159.155 106.568 159.324 106.565C160.19 106.577 160.745 106.716 161.415 107.244C161.992 107.844 161.992 107.844 162.148 108.509C161.948 109.397 161.559 109.995 160.859 110.562C160.197 110.697 159.723 110.742 159.063 110.726C158.883 110.727 158.704 110.728 158.519 110.729C157.918 110.732 157.317 110.724 156.716 110.717C156.286 110.716 155.855 110.717 155.424 110.717C154.254 110.718 153.084 110.71 151.915 110.7C150.692 110.692 149.47 110.691 148.247 110.689C145.932 110.685 143.617 110.674 141.302 110.66C138.667 110.645 136.032 110.638 133.396 110.631C127.975 110.617 122.554 110.593 117.132 110.562C117.126 110.218 117.122 109.873 117.118 109.529C117.116 109.337 117.113 109.145 117.11 108.947C117.136 108.19 117.242 107.459 117.359 106.711Z" fill="#D8D6FB"/>
<path d="M147.638 117.807C148.453 117.813 149.267 117.817 150.082 117.821C151.515 117.829 152.949 117.843 154.382 117.86C154.928 117.866 155.474 117.871 156.021 117.874C156.773 117.879 157.524 117.889 158.276 117.901C158.499 117.901 158.722 117.902 158.951 117.902C159.917 117.923 160.487 117.953 161.331 118.452C161.946 119.15 162.025 119.608 161.992 120.531C161.593 121.138 161.593 121.138 160.859 121.664C159.96 121.838 159.07 121.828 158.156 121.824C157.884 121.828 157.613 121.831 157.333 121.835C156.591 121.843 155.85 121.846 155.109 121.847C154.322 121.849 153.536 121.857 152.749 121.865C151.301 121.877 149.853 121.883 148.405 121.887C147.425 121.889 146.446 121.894 145.466 121.9C136.172 121.96 126.879 121.804 117.586 121.664C117.396 121.188 117.207 120.711 117.02 120.234C116.914 119.969 116.809 119.703 116.701 119.43C116.453 118.719 116.453 118.719 116.453 118.039C116.977 117.968 116.977 117.968 117.586 118.039C117.997 118.606 117.997 118.606 118.266 119.172C118.266 118.798 118.266 118.424 118.266 118.039C138.779 117.744 138.779 117.744 147.638 117.807Z" fill="#D9D7FA"/>
<path d="M116.453 145.227C117.293 145.824 117.802 146.245 118.039 147.266C117.964 148.524 117.607 149.305 116.85 150.282C116.642 150.561 116.434 150.84 116.227 151.12C116.116 151.267 116.005 151.413 115.891 151.564C115.294 152.361 114.713 153.17 114.131 153.978C114.008 154.148 113.885 154.318 113.758 154.493C112.554 156.159 111.377 157.844 110.201 159.529C109.494 160.542 108.783 161.551 108.07 162.559C107.084 163.953 106.104 165.351 105.125 166.75C103.807 168.635 102.483 170.516 101.155 172.394C100.696 173.044 100.237 173.694 99.7785 174.345C99.5498 174.669 99.3207 174.993 99.0911 175.317C98.5505 176.079 98.0147 176.844 97.4909 177.618C96.1739 179.547 94.9984 181.06 92.6641 181.703C89.7552 182.01 87.9915 181.395 85.7256 179.579C85.3184 179.231 84.9124 178.882 84.5078 178.531C84.2463 178.319 84.2463 178.319 83.9795 178.103C82.9745 177.275 82.363 176.53 81.7891 175.359C81.7143 175.21 81.6395 175.06 81.5625 174.906C81.6223 173.053 82.0792 171.085 83.3493 169.673C83.7856 169.299 83.7856 169.299 84.5078 168.789C84.443 168.915 84.3781 169.041 84.3113 169.17C83.4531 170.925 82.7633 172.706 83.1484 174.68C84.0226 176.592 86.238 178.22 88.1187 179.069C89.5862 179.514 90.8668 179.333 92.2052 178.626C93.0703 178.02 93.6057 177.172 94.1934 176.308C94.4698 175.917 94.7468 175.527 95.0244 175.137C95.1609 174.944 95.2974 174.751 95.438 174.552C96.0019 173.77 96.6005 173.02 97.2095 172.272C98.1768 171.081 99.1155 169.871 100.042 168.647C100.936 167.467 101.851 166.315 102.817 165.192C103.697 164.17 104.509 163.118 105.29 162.018C105.942 161.124 106.623 160.257 107.306 159.387C108.574 157.767 109.805 156.124 111.019 154.464C111.786 153.416 112.567 152.382 113.366 151.358C115.655 148.596 115.655 148.596 116.453 145.227Z" fill="#BAB6EE"/>
<path d="M86.1076 84.8323C86.4359 84.8326 86.7642 84.8324 87.0925 84.8318C87.9823 84.8315 88.872 84.8381 89.7618 84.846C90.6922 84.8531 91.6226 84.8538 92.553 84.8551C94.3143 84.8586 96.0755 84.8679 97.8367 84.8793C99.842 84.892 101.847 84.8982 103.853 84.9039C107.977 84.9157 112.102 84.9356 116.226 84.9609C116.026 85.2655 115.824 85.5689 115.616 85.8682C115.302 86.3328 115.302 86.3328 115.013 86.9054C114.496 87.8052 114.115 88.4625 113.098 88.7921C112.297 88.8718 111.524 88.8766 110.719 88.8575C110.415 88.8583 110.11 88.8601 109.806 88.8629C108.982 88.8674 108.159 88.8578 107.336 88.8454C106.473 88.8346 105.61 88.836 104.747 88.8358C103.299 88.8337 101.851 88.823 100.403 88.8066C98.7293 88.7876 97.0558 88.7797 95.382 88.7782C93.5984 88.7766 91.8149 88.768 90.0313 88.7569C89.5178 88.754 89.0043 88.7524 88.4908 88.751C87.6842 88.7483 86.8778 88.7409 86.0713 88.7298C85.6343 88.7249 85.1972 88.7243 84.7601 88.7238C84.5 88.7193 84.2399 88.7148 83.9719 88.7101C83.7459 88.708 83.5199 88.7059 83.287 88.7037C82.5279 88.5526 82.2571 88.2862 81.7889 87.6796C81.6374 86.7535 81.6697 86.2871 82.1642 85.4849C83.1978 84.5273 84.7927 84.8144 86.1076 84.8323Z" fill="#C9C6F1"/>
<path d="M126.421 91.9872C126.866 91.9841 126.866 91.9841 127.32 91.9809C128.131 91.9755 128.942 91.9815 129.753 91.9899C130.603 91.997 131.453 91.9947 132.303 91.9938C133.731 91.9936 135.158 92.0005 136.585 92.012C138.234 92.0251 139.882 92.0279 141.531 92.0249C143.119 92.0222 144.707 92.0259 146.295 92.0329C146.97 92.0358 147.645 92.0366 148.32 92.0358C149.263 92.035 150.205 92.0438 151.148 92.0536C151.428 92.0524 151.707 92.0511 151.996 92.0499C154.099 92.0841 154.099 92.0841 154.802 92.7447C155.195 93.3438 155.195 93.3438 155.337 94.0234C155.193 94.7159 155.022 95.1114 154.504 95.5977C153.432 96.1762 152.085 95.9933 150.897 95.9853C150.571 95.9873 150.245 95.9897 149.919 95.9925C149.036 95.9989 148.152 95.9984 147.268 95.9966C146.344 95.9959 145.42 96.0015 144.496 96.0065C142.747 96.015 140.998 96.0178 139.248 96.0184C137.257 96.0195 135.265 96.027 133.274 96.035C129.177 96.0513 125.081 96.0595 120.984 96.0625C121.345 95.3726 121.728 94.6978 122.117 94.0234C122.208 93.8482 122.298 93.6729 122.392 93.4923C123.376 91.8451 124.63 91.9569 126.421 91.9872Z" fill="#D9D7FA"/>
<path d="M141.375 84.5078C148.795 84.3251 155.255 85.7607 161.086 90.625C161.311 90.8108 161.537 90.9965 161.769 91.1879C163.038 92.2697 164.131 93.4426 165.136 94.774C165.233 94.8997 165.33 95.0255 165.43 95.1551C167.403 97.8909 167.855 100.362 167.741 103.624C167.734 103.97 167.728 104.316 167.723 104.661C167.708 105.496 167.685 106.33 167.656 107.164C166.995 106.549 166.792 106.045 166.509 105.182C165.81 103.302 164.754 101.755 163.578 100.141C163.483 100.008 163.388 99.876 163.29 99.7397C158.074 92.5645 150.046 87.0161 141.375 84.961C141.375 84.8114 141.375 84.6619 141.375 84.5078Z" fill="#FDFDFE"/>
<path d="M84.0172 137.868C84.2872 137.866 84.5573 137.865 84.8355 137.864C85.1309 137.867 85.4264 137.87 85.7308 137.874C86.0457 137.874 86.3605 137.874 86.6754 137.873C87.5296 137.873 88.3838 137.878 89.238 137.885C90.1309 137.89 91.0238 137.891 91.9167 137.892C93.6074 137.895 95.298 137.902 96.9886 137.911C98.9134 137.921 100.838 137.926 102.763 137.931C106.722 137.94 110.682 137.956 114.641 137.977C114.435 138.266 114.227 138.553 114.018 138.84C113.844 139.081 113.844 139.081 113.667 139.326C113.092 140.017 112.653 140.435 111.748 140.545C111.29 140.551 110.832 140.555 110.374 140.559C109.605 140.645 109.605 140.645 108.973 141.262C107.905 142.045 106.884 141.979 105.6 141.954C105.234 141.954 105.234 141.954 104.861 141.953C104.059 141.951 103.257 141.94 102.454 141.929C101.895 141.925 101.336 141.921 100.778 141.917C99.6078 141.908 98.4382 141.895 97.2684 141.879C95.7689 141.859 94.2694 141.849 92.7697 141.842C91.6163 141.835 90.463 141.824 89.3097 141.81C88.7567 141.804 88.2037 141.8 87.6507 141.798C86.8783 141.794 86.1063 141.782 85.334 141.769C84.9911 141.769 84.9911 141.769 84.6413 141.769C83.5873 141.744 83.0789 141.718 82.2128 141.075C81.6563 140.278 81.6333 139.835 81.7892 138.883C82.4634 138.001 82.9258 137.864 84.0172 137.868Z" fill="#D5D3F7"/>
<path d="M84.7356 128.347C85.0058 128.349 85.0058 128.349 85.2816 128.352C85.8805 128.357 86.479 128.371 87.0778 128.385C87.5031 128.39 87.9284 128.396 88.3537 128.4C89.254 128.41 90.1541 128.424 91.0543 128.439C92.4104 128.462 93.7663 128.472 95.1225 128.479C97.1385 128.49 99.1543 128.506 101.17 128.526C102.315 128.538 103.46 128.548 104.605 128.557C105.741 128.565 106.877 128.575 108.013 128.587C108.44 128.592 108.868 128.595 109.295 128.598C109.882 128.601 110.469 128.608 111.056 128.615C111.317 128.616 111.317 128.616 111.583 128.617C112.776 128.636 112.776 128.636 113.281 129.141C113.665 130.08 113.782 130.848 113.734 131.859C112.843 132.025 111.997 132.115 111.091 132.119C110.84 132.121 110.59 132.123 110.332 132.124C110.061 132.125 109.79 132.125 109.51 132.126C109.078 132.128 109.078 132.128 108.637 132.131C107.685 132.135 106.733 132.138 105.782 132.14C105.453 132.141 105.125 132.142 104.797 132.143C103.255 132.147 101.714 132.15 100.172 132.152C98.3941 132.154 96.616 132.16 94.8378 132.17C93.4619 132.176 92.086 132.18 90.71 132.18C89.8886 132.181 89.0673 132.183 88.246 132.189C87.331 132.195 86.4161 132.194 85.501 132.192C85.2289 132.195 84.9567 132.198 84.6764 132.201C84.4273 132.2 84.1783 132.198 83.9218 132.196C83.7055 132.197 83.4892 132.198 83.2664 132.198C82.5194 132.051 82.2509 131.774 81.7889 131.18C81.6615 130.401 81.6615 130.401 81.7889 129.594C82.649 128.456 83.3754 128.302 84.7356 128.347Z" fill="#D2CFF6"/>
<path d="M85.5462 94.8011C85.8115 94.8009 86.0769 94.8008 86.3503 94.8006C87.2269 94.8014 88.1032 94.8102 88.9798 94.8191C89.5877 94.8212 90.1956 94.8229 90.8036 94.8239C92.2399 94.8275 93.676 94.8367 95.1123 94.8481C96.7478 94.8608 98.3833 94.867 100.019 94.8727C103.382 94.8845 106.746 94.9045 110.109 94.9297C110.063 95.0811 110.017 95.2325 109.97 95.3885C109.909 95.5893 109.849 95.7901 109.786 95.997C109.726 96.1952 109.666 96.3933 109.605 96.5974C109.371 97.3958 109.171 98.1991 108.977 99.0078C108.864 98.7835 108.864 98.7835 108.75 98.5547C108.552 98.5563 108.552 98.5563 108.35 98.5579C105.135 98.5829 101.921 98.6016 98.706 98.6134C97.1514 98.6192 95.5969 98.6272 94.0423 98.6402C92.5424 98.6527 91.0426 98.6592 89.5427 98.6622C88.9701 98.6643 88.3975 98.6684 87.8249 98.6745C87.0237 98.6827 86.2227 98.6838 85.4214 98.6833C85.184 98.6874 84.9465 98.6915 84.7019 98.6957C83.0957 98.6842 83.0957 98.6842 82.2081 98.0227C81.7891 97.4219 81.7891 97.4219 81.6475 96.7422C82.0851 94.6416 83.7875 94.7725 85.5462 94.8011Z" fill="#CAC7F3"/>
<path d="M85.359 116.551C85.6045 116.551 85.8499 116.551 86.1028 116.551C86.9132 116.551 87.7234 116.56 88.5337 116.569C89.0959 116.571 89.6582 116.573 90.2204 116.574C91.6995 116.578 93.1785 116.589 94.6575 116.602C96.167 116.614 97.6766 116.619 99.1861 116.624C102.148 116.636 105.109 116.656 108.07 116.68C108.369 117.876 108.668 119.072 108.977 120.305C105.599 120.331 102.222 120.351 98.8439 120.363C97.2756 120.369 95.7074 120.377 94.1391 120.39C92.626 120.403 91.113 120.409 89.5999 120.412C89.0222 120.414 88.4445 120.418 87.8669 120.424C87.0586 120.433 86.2506 120.434 85.4422 120.433C85.2027 120.437 84.9631 120.441 84.7163 120.446C83.096 120.434 83.096 120.434 82.2068 119.773C81.7891 119.172 81.7891 119.172 81.6475 118.492C82.0693 116.467 83.649 116.521 85.359 116.551Z" fill="#CCC9F3"/>
<path d="M85.2127 73.0331C85.4427 73.0311 85.6727 73.0292 85.9097 73.0271C86.6694 73.0221 87.4288 73.0254 88.1886 73.0293C88.717 73.0285 89.2455 73.0274 89.774 73.026C90.8815 73.0243 91.9889 73.0267 93.0964 73.032C94.5153 73.0385 95.934 73.0348 97.3529 73.028C98.4442 73.0239 99.5355 73.0252 100.627 73.0281C101.15 73.0289 101.673 73.028 102.196 73.0253C102.928 73.0224 103.659 73.0268 104.391 73.0331C104.607 73.0308 104.822 73.0285 105.045 73.0262C106.034 73.042 106.734 73.089 107.534 73.7048C108.07 74.3125 108.07 74.3125 108.099 75.1197C107.813 75.9929 107.682 76.2762 106.938 76.8047C106.175 76.9426 105.421 76.9308 104.648 76.9256C104.415 76.9275 104.183 76.9295 103.943 76.9315C103.174 76.9366 102.405 76.9351 101.635 76.933C101.101 76.9342 100.567 76.9356 100.032 76.9373C98.9117 76.9397 97.7912 76.9386 96.6708 76.9353C95.2343 76.9314 93.7981 76.9367 92.3617 76.9447C91.2579 76.9497 90.1542 76.9494 89.0504 76.9475C88.5208 76.9473 87.9911 76.9489 87.4615 76.9522C86.7211 76.9561 85.9811 76.9529 85.2407 76.9477C84.9121 76.9517 84.9121 76.9517 84.5768 76.9557C83.5366 76.941 83.0701 76.9171 82.2194 76.2719C81.7891 75.6719 81.7891 75.6719 81.6475 74.9922C82.055 73.0362 83.5449 73.0154 85.2127 73.0331Z" fill="#C6C3F1"/>
<path d="M85.2969 106.582C85.5358 106.582 85.7746 106.582 86.0206 106.582C86.809 106.583 87.597 106.591 88.3853 106.6C88.9323 106.602 89.4793 106.604 90.0263 106.605C91.4652 106.609 92.9039 106.621 94.3428 106.633C95.8113 106.645 97.2798 106.65 98.7484 106.656C101.629 106.668 104.51 106.687 107.391 106.711C107.391 107.907 107.391 109.103 107.391 110.336C104.187 110.357 100.983 110.373 97.7783 110.383C96.2905 110.388 94.8027 110.394 93.315 110.404C91.8797 110.414 90.4446 110.419 89.0093 110.422C88.4612 110.423 87.913 110.427 87.3649 110.432C86.5984 110.438 85.832 110.439 85.0655 110.439C84.724 110.444 84.724 110.444 84.3756 110.449C82.8453 110.439 82.8453 110.439 82.1023 109.925C81.6333 109.183 81.6537 108.703 81.7894 107.844C82.752 106.468 83.7544 106.554 85.2969 106.582Z" fill="#CDCAF3"/>
<path d="M194.405 146.543C195.333 147.234 195.574 148.023 195.977 149.078C196.283 149.816 196.551 150.119 197.237 150.522C197.845 150.939 197.999 151.077 198.299 151.783C198.221 152.741 197.811 153.228 197.109 153.836C196.595 154.187 196.071 154.518 195.545 154.85C194.879 155.335 194.557 155.838 194.164 156.555C193.683 156.555 193.683 156.555 193.031 156.328C192.717 155.949 192.717 155.949 192.394 155.478C191.793 154.608 191.197 154.137 190.274 153.633C189.829 153.365 189.513 153.101 189.18 152.703C189.066 152.052 189.066 152.052 189.18 151.344C189.675 150.763 189.675 150.763 190.312 150.211C191.3 149.347 191.759 148.504 192.26 147.312C192.814 146.443 193.435 146.286 194.405 146.543Z" fill="#EDECFD"/>
<path d="M118.266 135.711C119.116 135.891 119.513 136.186 120.149 136.787C120.993 137.564 121.849 138.237 122.797 138.883C122.509 139.907 121.927 140.533 121.228 141.3C120.508 142.11 119.845 142.965 119.175 143.817C118.719 144.32 118.719 144.32 118.039 144.547C117.491 144.22 117.491 144.22 116.864 143.74C116.644 143.574 116.425 143.407 116.198 143.236C115.983 143.071 115.768 142.905 115.547 142.734C115.193 142.47 114.839 142.205 114.485 141.941C114.235 141.753 113.984 141.564 113.734 141.375C114.127 140.41 114.812 139.698 115.49 138.925C115.606 138.791 115.723 138.657 115.842 138.52C116.077 138.25 116.311 137.98 116.546 137.711C117.123 137.047 117.695 136.379 118.266 135.711Z" fill="#F1F0FD"/>
<path d="M36.0234 110.109C36.2477 110.109 36.472 110.109 36.7031 110.109C36.7718 110.399 36.8404 110.688 36.9111 110.986C37.0067 111.364 37.1026 111.742 37.1987 112.12C37.2655 112.406 37.2655 112.406 37.3337 112.698C37.5859 113.789 37.5859 113.789 38.3616 114.528C38.562 114.565 38.7623 114.602 38.9688 114.641C39.1799 114.685 39.3911 114.73 39.6086 114.776C39.8227 114.811 40.0368 114.846 40.2573 114.881C41.4154 115.071 41.4154 115.071 41.9141 115.32C41.9141 115.545 41.9141 115.769 41.9141 116C41.6603 116.052 41.4065 116.105 41.145 116.158C40.8113 116.233 40.4776 116.307 40.144 116.382C39.9768 116.416 39.8096 116.45 39.6374 116.485C38.8426 116.668 38.4057 116.77 37.8643 117.402C37.562 118.158 37.3267 118.91 37.1138 119.696C37.0358 119.98 36.9578 120.264 36.8775 120.557C36.8199 120.773 36.7624 120.989 36.7031 121.211C36.4788 121.211 36.2545 121.211 36.0234 121.211C35.989 120.93 35.9545 120.648 35.919 120.359C35.6346 118.663 35.6346 118.663 34.8906 117.133C33.6955 116.332 32.2125 116.172 30.8125 116C30.8125 115.776 30.8125 115.551 30.8125 115.32C31.1016 115.252 31.3908 115.183 31.6887 115.112C32.0669 115.017 32.4451 114.921 32.8232 114.825C33.1093 114.758 33.1093 114.758 33.4012 114.69C34.4843 114.44 34.4843 114.44 35.2234 113.678C35.2631 113.472 35.3028 113.267 35.3438 113.055C35.4074 112.806 35.4711 112.556 35.5367 112.3C35.5945 112.04 35.6523 111.779 35.7119 111.511C35.7709 111.248 35.8299 110.985 35.8907 110.714C35.9345 110.514 35.9783 110.315 36.0234 110.109Z" fill="#BFBCEF"/>
<path d="M194.617 67.2891C194.767 67.2891 194.916 67.2891 195.07 67.2891C195.123 67.5128 195.175 67.7365 195.229 67.967C195.303 68.2603 195.378 68.5535 195.453 68.8467C195.524 69.1358 195.595 69.4249 195.668 69.7228C195.901 70.4881 195.901 70.4881 196.508 70.7725C196.706 70.8192 196.905 70.8659 197.109 70.9141C197.385 70.985 197.385 70.985 197.666 71.0574C197.93 71.1126 197.93 71.1126 198.2 71.1689C198.379 71.2069 198.558 71.2449 198.742 71.284C198.876 71.3114 199.01 71.3389 199.148 71.3672C199.148 71.6663 199.148 71.9653 199.148 72.2734C198.944 72.3015 198.739 72.3295 198.528 72.3584C197.049 72.5481 197.049 72.5481 195.872 73.3461C195.701 73.8208 195.603 74.2677 195.523 74.7656C195.437 75.0686 195.347 75.3708 195.254 75.6719C195.194 75.8962 195.133 76.1205 195.07 76.3516C194.734 76.2394 194.734 76.2394 194.391 76.125C194.176 75.5241 194.176 75.5241 194.008 74.7798C193.951 74.5348 193.894 74.2897 193.836 74.0373C193.711 73.4062 193.711 73.4062 193.711 72.9531C192.515 72.6541 191.318 72.355 190.086 72.0469C190.161 71.8226 190.235 71.5983 190.312 71.3672C190.905 71.176 190.905 71.176 191.644 71.0273C192.854 70.8116 192.854 70.8116 193.711 70.0078C193.931 69.3989 193.931 69.3989 194.079 68.7334C194.372 67.5345 194.372 67.5345 194.617 67.2891Z" fill="#BEBBEF"/>
<path d="M186.546 167.84C186.721 167.837 186.896 167.834 187.076 167.831C187.851 167.909 188.336 168.171 188.883 168.718C189.456 169.729 189.477 170.55 189.194 171.664C188.593 172.629 188.002 173.016 186.914 173.32C185.974 173.32 185.488 173.193 184.691 172.697C184.046 172.033 183.76 171.557 183.728 170.619C183.785 169.695 183.912 169.31 184.521 168.577C185.261 167.981 185.616 167.848 186.546 167.84Z" fill="#F1F0FD"/>
<path d="M57.0938 36.9297C57.3928 36.9297 57.6919 36.9297 58 36.9297C58.0464 37.1207 58.0929 37.3117 58.1407 37.5085C58.2018 37.7567 58.2628 38.005 58.3257 38.2607C58.3861 38.5078 58.4466 38.7549 58.5089 39.0095C58.6522 39.6314 58.6522 39.6314 58.9062 40.1016C59.3967 40.2435 59.8938 40.3631 60.3931 40.4697C60.8 40.5582 60.8 40.5582 61.2152 40.6485C61.4252 40.6923 61.6352 40.7361 61.8516 40.7812C61.8516 41.0803 61.8516 41.3794 61.8516 41.6875C61.6632 41.7234 61.4748 41.7593 61.2807 41.7964C61.0345 41.8492 60.7883 41.9021 60.5347 41.9565C60.2902 42.0065 60.0458 42.0564 59.7939 42.1079C58.974 42.4295 58.802 42.7038 58.4531 43.5C58.3148 44.036 58.2284 44.5644 58.1416 45.1107C58.0949 45.2521 58.0481 45.3934 58 45.5391C57.6636 45.6512 57.6636 45.6512 57.3203 45.7656C57.2917 45.5472 57.2631 45.3287 57.2336 45.1036C57.0459 44.1357 56.8824 43.4641 56.4141 42.5938C55.3785 42.0365 54.4115 41.8407 53.2422 41.6875C53.2422 41.3884 53.2422 41.0894 53.2422 40.7812C54.8123 40.4448 54.8123 40.4448 56.4141 40.1016C56.6384 39.0548 56.8627 38.0081 57.0938 36.9297Z" fill="#C1BEF0"/>
<path d="M186.198 56.5328C187.038 56.7181 187.361 57.0625 187.82 57.7735C187.977 58.4169 187.98 58.943 187.82 59.586C187.247 60.4021 186.86 60.6655 185.908 60.9596C184.913 60.9421 184.498 60.6691 183.742 60.0392C183.375 59.3064 183.386 58.5657 183.515 57.7735C184.229 56.6682 184.941 56.453 186.198 56.5328Z" fill="#EFEEFD"/>
<path d="M118.266 135.711C119.117 135.842 119.531 136.203 120.149 136.787C120.993 137.564 121.849 138.237 122.797 138.883C122.504 139.786 122.21 140.16 121.438 140.695C121.339 140.548 121.24 140.4 121.138 140.247C119.966 138.526 119.966 138.526 118.492 137.07C117.783 137.141 117.374 137.412 116.85 137.877C116.644 138.06 116.438 138.242 116.227 138.43C116.554 137.696 116.965 137.156 117.501 136.561C117.644 136.401 117.787 136.24 117.935 136.076C118.044 135.955 118.153 135.835 118.266 135.711Z" fill="#D8D6FB"/>
<path d="M159.5 77.9375C160.75 78.1362 161.605 78.6948 162.658 79.3677C162.944 79.5501 162.944 79.5501 163.236 79.7363C164.998 80.8829 166.579 82.1641 168.109 83.6016C168.229 83.7125 168.348 83.8235 168.471 83.9378C170.213 85.5706 171.689 87.3382 173.094 89.2656C172.982 89.4899 172.982 89.4899 172.867 89.7188C172.741 89.5505 172.615 89.3823 172.485 89.209C171.996 88.5819 171.996 88.5819 171.423 88.1753C170.63 87.5145 170.019 86.7403 169.469 85.8672C169.469 85.7177 169.469 85.5681 169.469 85.4141C169.319 85.4141 169.17 85.4141 169.016 85.4141C169.016 85.2645 169.016 85.115 169.016 84.9609C168.89 84.9075 168.764 84.854 168.635 84.799C167.981 84.437 167.495 83.9825 166.948 83.4741C166.225 82.7775 166.225 82.7775 165.391 82.2422C165.391 82.0927 165.391 81.9431 165.391 81.7891C165.233 81.7344 165.076 81.6798 164.914 81.6236C164.149 81.2883 163.502 80.8434 162.828 80.3589C161.973 79.7541 161.117 79.1619 160.222 78.6172C159.984 78.4677 159.746 78.3181 159.5 78.1641C159.5 78.0893 159.5 78.0145 159.5 77.9375Z" fill="#DDDBFA"/>
<path d="M121.664 142.508C122.205 142.638 122.721 142.785 123.25 142.961C122.774 144.356 121.888 145.424 120.758 146.359C120.087 146.491 119.825 146.383 119.172 146.133C119.5 145.146 120.005 144.475 120.673 143.683C120.858 143.462 121.043 143.241 121.234 143.013C121.376 142.846 121.518 142.68 121.664 142.508Z" fill="#F1F0FD"/>
<path d="M115.773 112.828C116.19 113.531 116.334 114.05 116.227 114.867C115.89 115.091 115.89 115.091 115.547 115.32C115.472 114.573 115.397 113.825 115.32 113.055C115.47 112.98 115.619 112.905 115.773 112.828Z" fill="#E7E6FA"/>
<path d="M166.07 89.2656C166.369 89.5647 166.668 89.8637 166.977 90.1719C166.678 90.3962 166.378 90.6205 166.07 90.8516C165.391 90.002 165.391 90.002 165.391 89.4922C165.615 89.4174 165.839 89.3427 166.07 89.2656Z" fill="#B1ADEA"/>
<path d="M147.266 74.5391C147.671 74.5269 148.077 74.5181 148.483 74.5108C148.709 74.5055 148.935 74.5003 149.168 74.4949C149.758 74.5391 149.758 74.5391 150.211 74.9922C149.091 75.2654 148.351 75.1348 147.266 74.7657C147.266 74.6909 147.266 74.6162 147.266 74.5391Z" fill="#DAD8FB"/>
</g>
<defs>
<clipPath id="clip0_1220_3699">
<rect width="232" height="232" fill="white"/>
</clipPath>
</defs>
</svg>
